<?xml version="1.0" standalone="no"?>
<!DOCTYPE svg PUBLIC "-//W3C//DTD SVG 20010904//EN"
 "http://www.w3.org/TR/2001/REC-SVG-20010904/DTD/svg10.dtd">
<svg version="1.0" xmlns="http://www.w3.org/2000/svg"
 width="2560.000000pt" height="1440.000000pt" viewBox="0 0 2560.000000 1440.000000"
 preserveAspectRatio="xMidYMid meet">

<g transform="translate(0.000000,1440.000000) scale(0.100000,-0.100000)"
fill="#000000" stroke="none">
<path d="M13797 12082 c18 -31 21 -10 -87 -507 -34 -154 -79 -365 -101 -470
-54 -253 -99 -460 -149 -690 -23 -104 -44 -199 -46 -210 -14 -74 -133 -607
-179 -805 -14 -58 -34 -148 -45 -200 -10 -52 -26 -124 -34 -160 -54 -242 -89
-402 -97 -443 -4 -27 -19 -96 -33 -155 -43 -185 -75 -326 -80 -357 -7 -36 -41
-197 -61 -280 -7 -33 -20 -91 -29 -130 -8 -38 -27 -124 -41 -190 -15 -66 -29
-131 -31 -145 -3 -14 -9 -41 -15 -60 -5 -19 -18 -78 -29 -130 -10 -52 -28
-138 -40 -190 -12 -52 -28 -124 -35 -160 -7 -36 -27 -130 -45 -210 -18 -80
-36 -163 -41 -185 -7 -37 -52 -244 -84 -390 -7 -33 -25 -114 -39 -180 -14 -66
-32 -149 -40 -185 -8 -36 -24 -110 -36 -165 -11 -55 -25 -118 -30 -140 -9 -38
-67 -307 -76 -350 -2 -11 -6 -33 -10 -48 -3 -16 -8 -38 -10 -50 -2 -12 -7 -40
-12 -62 -18 -77 -54 -240 -63 -280 -4 -22 -11 -53 -14 -70 -4 -16 -29 -136
-56 -265 -52 -244 -53 -251 -95 -440 -14 -63 -34 -162 -45 -220 -12 -58 -24
-121 -29 -140 -17 -77 -61 -289 -75 -360 -7 -41 -25 -131 -40 -200 -21 -100
-72 -390 -101 -565 -2 -16 -7 -42 -10 -57 -30 -146 262 -146 851 -1 1146 281
2386 877 3380 1623 340 256 575 459 865 750 377 377 678 761 910 1160 405 698
552 1407 424 2047 -164 826 -812 1485 -1819 1852 -583 213 -1277 312 -1973
281 -199 -9 -393 -23 -472 -35 -14 -2 -44 -4 -68 -4 -24 -1 -41 -5 -38 -9 3
-5 -4 -8 -16 -8 -15 1 -24 -9 -33 -34 -13 -34 -13 -33 -8 25 2 33 15 125 29
205 105 636 164 1126 185 1546 18 380 2 444 -118 467 l-32 6 16 -27z"/>
<path d="M11910 11428 c0 -10 5 -18 10 -18 6 0 10 -7 10 -16 0 -8 5 -12 10 -9
6 3 10 13 10 21 0 8 -4 13 -9 9 -6 -3 -14 3 -20 12 -10 17 -10 17 -11 1z"/>
<path d="M12030 11431 c0 -6 4 -13 10 -16 6 -3 7 1 4 9 -7 18 -14 21 -14 7z"/>
<path d="M11775 11400 c10 -16 -14 -40 -33 -33 -14 4 -14 3 -3 -5 10 -7 22 -4
43 11 33 25 36 37 7 37 -11 0 -17 -4 -14 -10z"/>
<path d="M12060 11401 c0 -5 6 -13 13 -19 10 -8 13 -6 13 9 0 10 -6 19 -13 19
-7 0 -13 -4 -13 -9z"/>
<path d="M11620 11381 c0 -5 5 -13 10 -16 6 -3 10 -2 10 4 0 5 -4 13 -10 16
-5 3 -10 2 -10 -4z"/>
<path d="M11674 11378 c-5 -7 -3 -8 6 -3 10 6 12 4 7 -8 -5 -13 -1 -17 15 -17
20 0 21 1 3 20 -21 23 -22 24 -31 8z"/>
<path d="M11970 11370 c0 -5 5 -10 10 -10 6 0 10 5 10 10 0 6 -4 10 -10 10 -5
0 -10 -4 -10 -10z"/>
<path d="M11860 11360 c0 -6 -4 -9 -8 -6 -11 7 -29 -25 -26 -47 1 -9 -2 -14
-8 -11 -5 4 -8 19 -6 35 3 16 1 29 -4 29 -7 0 -12 -23 -9 -42 0 -5 -3 -8 -8
-8 -5 0 -11 10 -13 23 -3 17 -5 15 -9 -11 -5 -29 -3 -33 12 -29 10 3 20 -2 24
-11 7 -20 -4 -30 -14 -13 -11 18 -31 5 -31 -20 0 -27 -27 -24 -32 5 -4 19 -1
22 15 18 12 -3 18 -1 14 5 -12 19 -47 23 -48 5 0 -11 -2 -13 -6 -4 -7 18 17
44 35 37 12 -4 13 -3 2 10 -9 11 -16 12 -26 4 -7 -6 -19 -7 -25 -3 -8 5 -10 3
-4 -7 5 -8 -3 -4 -16 8 -23 21 -53 19 -49 -3 1 -5 -3 -10 -9 -12 -6 -2 -11 8
-11 22 0 26 -13 35 -25 16 -3 -5 -2 -10 4 -10 13 0 0 -38 -14 -40 -5 -1 -11 4
-14 11 -2 7 1 9 10 4 11 -6 11 -5 2 5 -6 7 -19 10 -28 6 -14 -5 -15 -9 -5 -21
18 -22 4 -31 -24 -15 -14 7 -32 9 -43 5 -10 -4 -25 -9 -34 -10 -10 -1 -24 -9
-34 -18 -19 -20 -27 -21 -41 -7 -7 7 -9 -1 -8 -25 3 -32 2 -34 -12 -20 -11 11
-20 13 -28 5 -7 -5 -16 -7 -19 -3 -4 3 -7 1 -7 -5 0 -7 -4 -12 -10 -12 -5 0
-8 6 -7 13 2 6 -1 2 -7 -11 -7 -15 -15 -20 -29 -16 -13 4 -20 0 -24 -15 -6
-25 -7 -25 -38 -5 -24 16 -25 15 -25 -6 0 -15 -5 -20 -17 -18 -10 2 -34 -6
-53 -17 -34 -21 -87 -40 -102 -37 -5 1 -8 -3 -8 -8 0 -6 -8 -10 -19 -10 -11 0
-21 -9 -24 -21 -3 -12 -10 -18 -16 -14 -6 3 -14 -1 -17 -10 -4 -11 -9 -13 -13
-6 -5 8 -13 6 -27 -5 -10 -8 -13 -12 -5 -8 9 4 12 2 9 -7 -3 -8 -11 -15 -19
-15 -8 -1 -18 -3 -24 -4 -5 -1 -14 -3 -20 -4 -5 0 -12 -5 -14 -11 -6 -16 -40
-37 -50 -31 -16 11 -40 -5 -34 -21 4 -10 2 -14 -4 -10 -6 4 -19 -3 -29 -14
-11 -12 -26 -18 -39 -15 -13 3 -30 -5 -49 -25 -16 -16 -40 -29 -52 -29 -13 0
-28 -9 -34 -21 -7 -11 -17 -18 -25 -16 -7 3 -18 -5 -25 -18 -8 -15 -18 -21
-31 -18 -13 4 -19 0 -19 -12 0 -11 -5 -15 -15 -11 -9 3 -20 -4 -27 -17 -8 -13
-24 -23 -38 -23 -47 -3 -80 -20 -80 -42 0 -14 -36 -43 -43 -35 -4 3 -7 -2 -7
-13 0 -14 -3 -15 -9 -6 -6 10 -10 10 -21 -3 -7 -8 -19 -15 -27 -15 -8 0 -12
-4 -9 -9 8 -12 -21 -34 -33 -27 -6 4 -15 -3 -21 -14 -6 -11 -17 -20 -24 -20
-8 0 -16 -6 -19 -14 -3 -8 -22 -19 -42 -26 -25 -8 -33 -15 -25 -20 8 -5 0 -12
-24 -20 -20 -6 -34 -16 -31 -21 6 -9 -7 -13 -31 -10 -7 1 -14 -8 -17 -20 -3
-11 -15 -23 -26 -26 -11 -3 -18 -9 -15 -14 3 -5 -1 -9 -8 -9 -7 -1 -28 -14
-47 -30 -19 -16 -38 -27 -43 -24 -4 3 -11 -1 -14 -10 -3 -8 -12 -12 -20 -9
-10 3 -12 0 -9 -10 4 -8 -1 -17 -9 -20 -10 -4 -13 -1 -9 9 3 7 0 14 -6 14 -6
0 -11 -5 -11 -11 0 -6 -7 -17 -15 -25 -8 -8 -12 -21 -8 -29 3 -11 1 -13 -10
-10 -9 4 -16 -1 -20 -15 -3 -11 -9 -20 -14 -19 -22 4 -34 -2 -27 -13 6 -10 4
-10 -8 0 -13 10 -16 9 -21 -9 -3 -11 -15 -23 -26 -26 -13 -3 -18 -10 -14 -21
5 -11 2 -14 -10 -9 -9 3 -17 2 -17 -4 0 -6 -4 -8 -8 -5 -5 3 -15 -6 -22 -19
-7 -14 -19 -25 -26 -25 -8 0 -11 -6 -8 -15 5 -11 -1 -15 -20 -15 -14 0 -26 -4
-26 -9 0 -5 -9 -13 -20 -16 -11 -4 -18 -11 -15 -16 4 -5 1 -9 -4 -9 -6 0 -11
-9 -11 -20 0 -15 -7 -20 -25 -20 -16 0 -25 -6 -25 -16 0 -8 -16 -22 -35 -30
-19 -8 -35 -21 -35 -29 0 -8 -7 -15 -15 -15 -9 0 -15 -9 -16 -22 0 -19 -2 -20
-7 -6 -9 22 -37 7 -37 -19 0 -11 -7 -17 -17 -17 -10 1 -18 -4 -18 -11 0 -8 -9
-17 -20 -20 -11 -4 -18 -10 -15 -15 7 -11 -55 -70 -73 -70 -7 0 -12 -8 -10
-17 2 -10 -3 -18 -9 -19 -7 -1 -17 -2 -23 -3 -5 0 -10 -10 -10 -21 0 -13 -5
-17 -14 -14 -16 6 -40 -31 -31 -46 3 -6 1 -11 -4 -11 -6 -1 -15 -3 -21 -4 -5
-1 -14 -3 -20 -4 -5 0 -10 -6 -10 -12 0 -5 6 -7 13 -3 6 4 3 -2 -8 -13 -13
-13 -22 -16 -27 -9 -7 11 -29 -37 -25 -56 1 -6 -5 -13 -13 -15 -12 -4 -12 -3
-1 5 9 6 10 12 2 16 -6 4 -13 -4 -17 -18 -4 -16 -11 -23 -20 -19 -8 3 -17 -3
-21 -13 -4 -11 -15 -26 -25 -35 -10 -9 -15 -19 -11 -23 3 -3 -1 -6 -10 -6 -23
0 -69 -41 -63 -57 3 -7 -3 -17 -12 -22 -9 -6 -14 -11 -10 -11 11 0 -81 -90
-92 -90 -5 0 -10 -8 -10 -17 0 -10 -12 -31 -26 -48 -23 -27 -24 -28 -14 -5 11
24 10 24 -4 6 -9 -11 -16 -27 -16 -36 0 -9 -15 -29 -34 -45 -19 -16 -37 -39
-41 -52 -3 -12 -16 -30 -30 -39 -14 -9 -25 -23 -25 -30 0 -8 -4 -14 -10 -14
-5 0 -10 -7 -10 -15 0 -9 -7 -18 -15 -21 -8 -4 -15 -12 -15 -20 0 -8 -9 -19
-20 -26 -11 -7 -20 -18 -20 -25 0 -7 -4 -13 -8 -13 -5 0 -16 -19 -27 -42 -10
-24 -31 -59 -47 -79 -15 -20 -28 -42 -28 -48 0 -6 -4 -11 -8 -11 -5 0 -17 -17
-28 -37 -10 -21 -22 -40 -25 -43 -4 -3 -10 -16 -14 -30 -4 -14 -17 -38 -30
-55 -22 -30 -37 -64 -32 -77 1 -3 -8 -17 -20 -30 -12 -13 -29 -40 -37 -60 -9
-20 -20 -40 -26 -43 -6 -4 -8 -11 -4 -16 3 -6 -2 -19 -13 -31 -10 -11 -17 -23
-16 -27 6 -15 -19 -81 -28 -75 -6 3 -7 -4 -4 -19 5 -17 2 -28 -8 -34 -8 -4
-17 -19 -19 -33 -2 -15 -9 -24 -17 -22 -11 2 -12 -6 -7 -39 5 -34 4 -40 -8
-36 -9 4 -13 0 -12 -11 2 -9 -3 -23 -11 -30 -7 -7 -16 -31 -19 -54 -4 -22 -13
-42 -21 -45 -12 -5 -12 -7 -1 -14 10 -6 10 -11 0 -21 -6 -6 -12 -27 -12 -46 0
-26 -4 -33 -14 -29 -10 4 -13 1 -9 -9 3 -8 1 -20 -5 -27 -6 -6 -9 -27 -8 -45
1 -18 -1 -35 -5 -38 -4 -2 -7 -17 -5 -32 1 -15 -4 -36 -11 -47 -6 -11 -11 -34
-9 -50 1 -17 -1 -34 -5 -40 -4 -5 -12 -50 -19 -100 -18 -126 -18 -130 -20
-130 -7 0 -6 -416 1 -421 5 -3 4 -14 -2 -25 -6 -13 -7 -25 -1 -32 5 -7 8 -28
7 -47 -1 -19 4 -48 12 -63 12 -24 12 -31 1 -44 -10 -13 -10 -17 -1 -20 9 -3
10 -10 3 -24 -8 -14 -7 -19 2 -19 7 0 14 -12 15 -27 4 -55 8 -78 15 -89 4 -6
9 -26 10 -45 1 -19 9 -40 16 -48 12 -13 12 -16 -2 -27 -15 -10 -14 -12 5 -17
16 -4 20 -11 16 -26 -3 -11 0 -23 7 -26 8 -3 7 -7 -2 -11 -10 -5 -9 -9 3 -18
18 -13 39 -91 29 -108 -4 -6 3 -5 16 2 18 10 21 10 14 -2 -14 -21 -12 -31 9
-55 10 -12 17 -28 15 -35 -3 -7 2 -18 10 -24 9 -6 15 -25 15 -43 0 -20 3 -27
9 -19 6 11 8 11 8 0 0 -7 5 -10 12 -6 6 4 8 3 4 -4 -3 -6 1 -17 9 -26 10 -10
12 -17 4 -21 -6 -4 -13 2 -16 14 -3 12 -9 21 -14 21 -16 0 -9 -17 19 -45 15
-15 27 -30 28 -34 3 -20 25 -61 34 -61 5 0 10 -5 10 -11 0 -27 171 -229 290
-343 415 -394 1001 -690 1676 -845 543 -125 1205 -159 1829 -96 240 24 263 27
275 35 7 4 30 103 51 221 71 394 130 711 204 1094 144 745 185 974 185 1041 0
20 -9 48 -19 62 -21 30 -21 31 -21 68 0 21 -4 24 -20 19 -18 -6 -20 -2 -20 34
0 29 -5 44 -19 52 -11 7 -16 20 -14 30 3 10 -3 23 -15 30 -11 7 -18 19 -15 26
3 7 -2 13 -10 13 -15 0 -30 33 -28 62 1 9 -3 19 -9 23 -6 3 -10 -3 -10 -14 0
-34 -16 -24 -18 12 -1 17 -10 39 -20 47 -10 9 -17 20 -15 27 2 6 -3 18 -12 26
-17 18 -20 37 -5 37 6 0 10 5 10 11 0 6 -7 8 -16 5 -12 -4 -15 -2 -10 9 4 10
-1 15 -14 15 -11 0 -25 10 -31 23 -7 12 -17 25 -23 29 -7 4 -4 13 7 26 23 25
22 39 -2 18 -13 -11 -21 -14 -26 -7 -3 6 1 14 9 17 9 3 16 13 16 21 0 9 -6 13
-15 9 -9 -3 -15 0 -15 9 0 8 -5 15 -11 15 -6 0 -9 7 -5 15 3 9 0 15 -9 15 -8
0 -15 5 -15 11 0 5 6 7 13 4 6 -4 4 0 -5 8 -10 8 -15 17 -12 20 4 3 3 14 0 24
-6 15 -8 15 -16 3 -7 -11 -10 -11 -10 -2 0 7 7 15 15 18 8 4 12 10 9 16 -3 5
-12 4 -22 -4 -13 -11 -12 -8 2 14 17 25 17 26 -2 22 -10 -3 -24 1 -31 10 -7 8
-18 13 -26 10 -7 -3 -16 0 -20 6 -3 6 -1 9 6 8 7 -2 15 6 17 17 2 11 9 23 15
26 6 4 7 15 2 25 -14 34 -16 56 -4 70 9 11 8 14 -5 14 -9 0 -16 -8 -16 -19 0
-27 -10 -51 -22 -51 -5 0 -7 4 -3 9 3 5 1 12 -3 15 -12 7 -2 56 11 56 14 0
-22 34 -45 43 -25 9 -23 26 2 20 11 -3 20 0 20 5 0 6 -15 10 -33 9 -21 -2 -34
1 -34 9 0 15 47 25 47 10 0 -6 5 -3 11 7 8 13 4 27 -16 60 -17 27 -24 33 -19
17 4 -14 12 -28 18 -32 7 -5 5 -8 -5 -8 -18 0 -32 32 -29 68 1 12 -3 22 -9 22
-6 0 -11 -4 -11 -10 0 -5 -7 -7 -15 -4 -13 5 -13 8 0 27 17 24 20 64 5 69 -5
2 -11 15 -12 31 -2 28 -12 35 -23 17 -4 -6 -10 -8 -15 -5 -13 8 0 35 16 35 9
0 14 11 14 29 0 35 -15 48 -28 25 -8 -14 -10 -15 -15 -1 -4 11 1 18 15 23 16
5 18 8 7 15 -13 8 -7 11 18 8 4 0 10 8 14 18 7 17 8 17 8 1 1 -10 5 -18 10
-18 12 0 9 18 -7 47 -8 14 -18 20 -28 16 -11 -4 -14 0 -10 20 3 17 -1 27 -10
31 -9 3 -13 10 -10 15 4 5 0 12 -6 15 -7 3 5 3 27 0 l40 -5 -35 20 c-19 11
-29 20 -22 21 6 0 12 5 12 11 0 7 -12 10 -30 7 -19 -3 -30 0 -30 8 0 6 -7 17
-15 24 -8 7 -15 18 -15 24 0 6 6 4 13 -5 12 -16 49 -39 63 -39 3 0 2 6 -5 13
-8 10 -7 17 2 26 10 11 8 12 -9 7 -13 -4 -26 -1 -33 8 -9 11 -7 15 11 20 18 5
20 8 9 15 -10 6 -6 11 15 19 l29 10 -30 7 c-29 8 -45 21 -45 38 0 5 7 1 16 -7
20 -20 35 -21 28 -1 -4 11 1 15 17 16 22 0 23 1 4 8 -11 5 -23 7 -27 4 -4 -2
-7 16 -6 41 0 41 2 44 25 40 17 -3 22 -1 17 7 -5 8 -2 10 8 6 24 -9 28 1 14
41 -7 21 -11 44 -8 52 4 12 2 13 -9 3 -16 -15 -39 -17 -39 -3 0 6 8 10 18 10
16 1 16 1 -1 11 -13 8 -21 6 -33 -5 -21 -21 -21 -21 -19 14 1 16 11 38 23 48
16 14 18 22 10 30 -16 16 -28 15 -28 -2 0 -8 -7 -17 -16 -20 -27 -10 -29 -7
-6 14 12 12 22 25 22 30 0 5 6 7 14 4 10 -4 13 0 11 13 -2 10 -4 21 -4 25 -1
4 -8 5 -16 2 -18 -7 -20 11 -2 27 7 7 11 26 9 44 -4 32 11 55 23 35 3 -5 1
-10 -4 -10 -6 0 -11 -7 -11 -15 0 -8 5 -15 10 -15 15 0 28 40 24 73 -2 19 0
26 9 21 7 -4 9 -4 5 0 -4 5 4 18 18 31 l24 23 -26 6 c-14 4 -29 5 -32 1 -3 -3
2 -5 11 -5 21 0 22 -14 2 -30 -18 -15 -23 -12 -28 16 -4 23 -29 64 -39 64 -11
0 -10 -88 1 -95 6 -3 8 6 5 22 -7 39 6 22 16 -21 6 -29 4 -38 -13 -53 -11 -10
-17 -12 -13 -5 5 8 0 12 -15 12 -22 0 -22 1 -4 14 16 12 17 17 6 43 -7 18 -9
41 -5 59 5 16 7 37 5 47 -1 9 2 17 8 17 6 0 8 -7 5 -15 -4 -8 -1 -15 5 -15 6
0 20 -9 31 -20 l21 -21 -3 28 c-2 15 -7 31 -12 34 -5 4 1 10 13 14 23 7 26 16
10 32 -7 7 -4 12 10 16 14 3 21 0 21 -10 0 -8 5 -11 10 -8 7 4 7 12 0 25 -5
10 -7 25 -4 33 3 10 -4 18 -23 25 -28 10 -28 10 15 17 48 9 57 25 12 25 -22 0
-28 4 -24 15 4 9 0 15 -8 15 -7 0 -14 9 -15 21 -1 15 2 19 13 15 28 -11 35 5
12 26 -20 17 -23 18 -26 4 -2 -9 -8 -16 -13 -16 -13 0 -11 7 7 35 13 19 13 28
3 47 -7 13 -19 28 -28 35 -9 6 -13 15 -8 19 4 4 7 2 7 -4 0 -7 13 -12 30 -12
23 0 31 5 36 25 4 14 8 24 11 22 2 -3 -5 -30 -15 -62 -20 -57 -20 -57 0 -77
13 -13 23 -17 30 -10 7 7 3 12 -11 17 -17 5 -19 12 -14 38 8 41 8 41 26 23 8
-8 17 -12 20 -9 3 3 0 12 -8 20 -8 8 -15 20 -15 26 0 7 4 6 10 -3 19 -30 20
-1 1 33 -17 31 -18 36 -4 41 9 4 13 14 10 26 -3 11 -1 20 4 20 4 0 6 6 3 14
-3 8 1 27 10 43 11 20 15 23 16 11 0 -10 5 -18 10 -18 14 0 12 23 -2 39 -11
11 -9 13 10 8 28 -7 31 23 2 30 -11 3 -20 9 -20 14 0 5 -9 9 -20 9 -11 0 -20
5 -20 10 0 6 6 10 13 10 7 0 18 5 25 12 15 15 -1 43 -36 63 -22 13 -23 15 -5
10 18 -5 22 -3 17 9 -3 9 -10 13 -15 10 -5 -3 -6 2 -2 12 5 15 7 14 16 -2 20
-35 32 -42 45 -27 7 7 11 17 7 22 -3 5 0 11 7 13 17 6 1 58 -18 58 -8 0 -13 4
-9 9 3 5 -5 17 -17 25 -12 9 -18 16 -13 16 6 0 19 -7 29 -15 10 -8 23 -12 28
-9 5 3 20 -2 34 -11 14 -9 31 -14 37 -12 7 3 -3 10 -20 17 -18 7 -33 16 -33
21 0 13 14 11 28 -3 9 -9 12 -8 12 6 0 9 -4 15 -9 11 -16 -9 -25 16 -10 27 10
7 8 8 -8 5 -25 -5 -33 17 -10 26 10 4 10 6 0 6 -7 1 -13 8 -13 16 0 15 7 18
42 18 10 0 15 4 12 9 -4 6 1 8 12 4 11 -3 26 -1 34 4 10 6 11 10 3 10 -7 0
-13 5 -13 10 0 6 11 8 25 4 15 -4 25 -2 25 5 0 18 -60 5 -86 -20 l-25 -23 3
32 c1 18 6 32 11 32 5 0 6 -8 3 -17 -6 -15 -5 -15 13 1 25 23 18 38 -15 30
-18 -5 -24 -2 -24 11 0 11 6 15 19 10 12 -4 21 0 25 11 4 12 2 15 -9 10 -17
-6 -21 19 -4 29 6 4 8 13 5 21 -3 7 -1 16 5 19 5 4 7 10 5 14 -3 4 0 13 5 21
8 13 10 13 19 0 7 -12 12 -12 22 -2 9 9 9 12 -1 12 -7 0 -9 5 -5 12 5 8 2 9
-9 5 -10 -3 -17 -4 -17 -2 0 13 38 74 43 69 3 -3 3 3 1 13 -4 15 -12 18 -37
15 -30 -5 -31 -4 -17 14 8 10 10 16 5 11 -4 -4 -17 0 -27 10 -17 15 -19 15
-32 -2 -13 -18 -13 -17 -11 6 1 13 3 28 4 32 0 5 14 -1 30 -12 16 -12 36 -21
45 -21 9 0 16 -5 16 -11 0 -5 5 -7 10 -4 15 9 -16 36 -33 29 -12 -4 -15 4 -14
44 1 28 4 48 6 46 2 -2 16 9 30 24 16 16 34 26 46 24 17 -4 17 -3 3 12 -10 9
-24 13 -34 9 -12 -4 -15 -3 -10 5 4 7 14 12 22 12 12 0 14 7 9 29 -4 20 -1 34
10 45 15 15 15 16 -5 16 -16 0 -20 -4 -16 -15 3 -8 1 -15 -4 -15 -5 0 -12 11
-16 24 -4 17 -11 22 -25 19 -31 -8 -22 5 19 26 l37 20 -35 -6 c-44 -7 -60 -20
-60 -47 0 -15 -7 -22 -21 -23 -21 -2 -21 -1 -3 13 11 9 12 12 4 8 -8 -4 -12
-4 -8 1 4 4 2 15 -5 24 -10 14 -10 14 4 3 14 -10 18 -10 23 4 11 27 7 37 -9
24 -12 -10 -15 -10 -15 4 0 10 8 16 23 16 29 0 57 19 40 27 -7 2 -13 9 -13 15
0 6 6 5 15 -2 9 -7 19 -10 22 -6 4 4 3 10 -2 14 -6 4 -10 13 -11 20 -3 31 -4
33 -22 23 -22 -12 -37 -3 -46 27 -4 12 -12 22 -17 22 -5 0 -9 8 -9 17 0 11 8
6 26 -18 22 -28 26 -30 21 -11 -4 19 -3 21 8 12 8 -7 13 -17 12 -23 -3 -16 25
-16 45 1 11 9 18 10 23 3 3 -6 11 -11 17 -11 6 0 1 11 -11 24 -14 15 -20 30
-16 37 5 8 4 10 -3 5 -7 -4 -12 -14 -12 -22 0 -8 -9 -14 -20 -14 -22 0 -27 19
-9 37 8 8 8 17 -1 33 -10 18 -8 25 7 43 15 18 15 19 1 8 -18 -13 -38 -8 -38
10 0 6 4 8 9 5 5 -3 14 1 20 8 8 10 9 16 1 21 -5 3 -10 1 -10 -5z m-185 -69
c-3 -2 0 -13 6 -25 9 -19 9 -19 -4 -3 -8 9 -22 17 -31 17 -9 0 -16 4 -16 9 0
5 11 8 24 7 13 0 23 -3 21 -5z m177 -43 c-8 -18 -11 -19 -11 -5 -1 9 -6 17
-12 17 -8 0 -7 5 1 15 19 23 36 2 22 -27z m-379 21 c-6 -6 -9 -18 -6 -25 3 -9
-1 -14 -12 -14 -10 0 -14 5 -9 13 12 21 26 37 32 37 3 0 1 -5 -5 -11z m37 7
c0 -2 -7 -9 -15 -16 -13 -11 -14 -10 -9 4 5 14 24 23 24 12z m35 -16 c3 -5 2
-10 -4 -10 -5 0 -13 5 -16 10 -3 6 -2 10 4 10 5 0 13 -4 16 -10z m40 1 c3 -5
2 -12 -3 -15 -5 -3 -9 1 -9 9 0 17 3 19 12 6z m-65 -25 c0 -3 -4 -8 -10 -11
-5 -3 -10 -1 -10 4 0 6 5 11 10 11 6 0 10 -2 10 -4z m181 -32 c12 -15 11 -16
-9 -10 -17 6 -22 3 -22 -10 0 -10 -3 -15 -6 -11 -8 7 5 47 15 47 5 0 15 -7 22
-16z m79 7 c0 -5 -6 -14 -14 -20 -11 -9 -16 -9 -22 0 -4 8 -3 9 4 5 7 -4 12
-1 12 8 0 9 5 16 10 16 6 0 10 -4 10 -9z m-50 -31 c0 -5 -5 -10 -11 -10 -5 0
-7 5 -4 10 3 6 8 10 11 10 2 0 4 -4 4 -10z m60 -5 c-7 -9 -15 -13 -17 -11 -7
7 7 26 19 26 6 0 6 -6 -2 -15z m-104 -36 c-9 -13 -16 -18 -16 -12 0 7 5 15 11
18 6 4 8 14 4 24 -5 12 -3 13 6 4 9 -9 8 -17 -5 -34z m84 1 c-13 -8 -12 -10 3
-10 10 0 17 -8 17 -20 0 -11 -5 -20 -11 -20 -5 0 -8 4 -5 9 3 5 -1 14 -9 21
-16 13 -11 30 8 30 7 0 6 -4 -3 -10z m57 -7 c10 -10 13 -14 6 -9 -16 10 -17 1
-3 -25 6 -11 7 -18 3 -17 -4 2 -20 -10 -35 -25 -15 -15 -33 -27 -40 -27 -7 1
-2 7 12 15 25 14 25 14 3 15 -13 0 -23 5 -23 11 0 6 7 9 15 5 25 -9 45 4 45
30 0 13 -4 24 -10 24 -5 0 -10 5 -10 10 0 15 16 12 37 -7z m-702 -13 c-3 -5
-12 -10 -18 -10 -7 0 -6 4 3 10 19 12 23 12 15 0z m570 -78 c-11 -11 -34 8
-28 24 6 15 7 15 20 -1 7 -10 11 -21 8 -23z m40 -10 c-3 -3 -11 0 -18 7 -9 10
-8 11 6 5 10 -3 15 -9 12 -12z m25 -62 c0 -11 -7 -20 -15 -20 -13 0 -13 3 -3
20 7 11 14 20 15 20 2 0 3 -9 3 -20z m126 -19 c-18 -20 -21 -51 -5 -51 5 0 7
-5 3 -11 -4 -8 -9 -7 -15 2 -6 10 -13 8 -29 -10 -11 -14 -23 -21 -27 -17 -4 4
-1 11 6 15 7 5 10 14 7 20 -4 6 0 11 8 11 9 0 16 5 16 10 0 6 -4 10 -10 10 -5
0 -10 4 -10 9 0 5 10 7 22 3 16 -4 20 -2 16 9 -4 10 1 15 14 16 19 2 19 1 4
-16z m-76 -22 c0 -6 -4 -7 -10 -4 -5 3 -10 11 -10 16 0 6 5 7 10 4 6 -3 10
-11 10 -16z m100 -3 c0 -3 -4 -8 -10 -11 -5 -3 -10 -1 -10 4 0 6 5 11 10 11 6
0 10 -2 10 -4z m-103 -29 c-6 -19 -23 -18 -24 2 -1 14 3 18 13 14 8 -3 13 -10
11 -16z m-17 -42 c0 -8 -7 -15 -15 -15 -16 0 -20 12 -8 23 11 12 23 8 23 -8z
m73 -2 c2 -5 -4 -16 -14 -25 -16 -15 -18 -15 -35 3 -10 11 -12 19 -6 19 7 0
12 -4 12 -10 0 -5 5 -10 10 -10 6 0 10 7 10 15 0 16 16 21 23 8z m-120 -17 c4
-10 1 -13 -8 -9 -8 3 -12 9 -9 14 7 12 11 11 17 -5z m65 -40 c12 2 22 -1 22
-7 0 -6 -9 -9 -20 -6 -11 3 -20 1 -20 -4 0 -17 -20 -9 -21 9 0 10 -3 12 -6 4
-2 -6 -9 -10 -14 -7 -5 4 -3 12 4 20 10 11 14 11 22 1 6 -7 20 -11 33 -10z
m-118 -2 c0 -8 -19 -13 -24 -6 -3 5 1 9 9 9 8 0 15 -2 15 -3z m157 -26 c-3 -7
-5 -2 -5 12 0 14 2 19 5 13 2 -7 2 -19 0 -25z m-44 -148 c-6 -7 -23 23 -23 40
0 8 6 4 13 -10 8 -14 12 -27 10 -30z m-1533 30 c0 -5 -5 -10 -11 -10 -5 0 -7
5 -4 10 3 6 8 10 11 10 2 0 4 -4 4 -10z m1590 0 c8 -5 11 -13 6 -17 -5 -4 -11
-2 -13 5 -3 6 -9 9 -14 6 -6 -3 -5 -12 3 -22 12 -15 11 -16 -4 -4 -9 8 -14 20
-11 28 6 16 12 17 33 4z m-80 -29 c0 -5 -6 -14 -14 -20 -11 -9 -14 -6 -18 18
-4 26 -2 29 14 20 10 -5 18 -13 18 -18z m111 -3 c-4 -12 -13 -24 -19 -26 -8
-2 -7 5 1 27 6 16 14 28 19 25 4 -3 4 -14 -1 -26z m-151 -13 c0 -8 -4 -15 -8
-15 -5 0 -9 7 -9 15 0 8 4 15 9 15 4 0 8 -7 8 -15z m120 -61 c0 -8 -4 -12 -10
-9 -5 3 -10 13 -10 21 0 8 5 12 10 9 6 -3 10 -13 10 -21z m-104 1 c14 -13 14
-17 0 -31 -9 -8 -17 -14 -17 -12 -5 13 -7 58 -3 58 3 0 12 -7 20 -15z m-46
-15 c0 -5 -2 -10 -4 -10 -3 0 -8 5 -11 10 -3 6 -1 10 4 10 6 0 11 -4 11 -10z
m-35 -10 c-3 -5 -12 -10 -18 -10 -7 0 -6 4 3 10 19 12 23 12 15 0z m135 -41
c-12 -9 -11 -10 8 -6 12 3 22 2 22 -3 0 -15 -27 -29 -47 -24 -15 4 -23 1 -26
-13 -4 -15 -5 -14 -6 4 -1 21 32 53 54 53 5 0 3 -5 -5 -11z m-135 -29 c-3 -5
-12 -10 -18 -10 -7 0 -6 4 3 10 19 12 23 12 15 0z m75 -8 c0 -5 -7 -9 -15 -9
-8 0 -12 4 -9 9 3 4 9 8 15 8 5 0 9 -4 9 -8z m53 -29 c-10 -4 -10 -9 1 -24 14
-20 10 -69 -5 -69 -5 0 -9 18 -9 40 0 25 -5 40 -12 40 -8 0 -5 7 6 15 11 8 22
12 25 9 3 -4 0 -9 -6 -11z m-123 -3 c0 -5 -4 -10 -9 -10 -6 0 -13 5 -16 10 -3
6 1 10 9 10 9 0 16 -4 16 -10z m73 -38 c-5 -12 -7 -12 -15 2 -11 20 1 44 12
25 5 -6 6 -19 3 -27z m-13 -45 c0 -5 -4 -5 -10 -2 -5 3 -10 14 -10 23 0 15 2
15 10 2 5 -8 10 -19 10 -23z m-60 3 c0 -5 -4 -10 -10 -10 -5 0 -10 5 -10 10 0
6 5 10 10 10 6 0 10 -4 10 -10z m94 -38 c5 -35 2 -43 -15 -52 -19 -11 -20 -10
-9 10 6 12 11 33 10 48 -4 61 7 57 14 -6z m-19 -152 c-3 -6 1 -13 10 -16 13
-6 14 -8 3 -15 -20 -13 -25 -11 -31 11 -4 16 2 24 21 29 2 1 0 -4 -3 -9z m-19
-130 c9 0 13 -4 10 -9 -7 -11 -56 -2 -56 11 0 6 7 7 16 4 9 -3 22 -6 30 -6z
m-108 -66 c-4 -3 -12 5 -18 18 -12 22 -12 22 6 6 10 -10 15 -20 12 -24z m58
20 c18 6 17 5 0 -9 -20 -15 -36 -6 -36 20 0 6 4 4 9 -4 5 -8 16 -11 27 -7z
m74 -34 c0 -5 -6 -7 -14 -4 -11 4 -13 0 -9 -18 3 -17 2 -19 -5 -9 -6 8 -15 10
-23 6 -8 -5 -5 1 5 13 20 23 46 30 46 12z m-136 -16 c3 -8 2 -12 -4 -9 -6 3
-10 10 -10 16 0 14 7 11 14 -7z m53 -34 c3 -11 10 -20 15 -20 5 0 7 -4 3 -9
-3 -5 -1 -12 5 -16 13 -8 13 -25 1 -25 -5 0 -13 9 -16 20 -4 11 -10 18 -14 16
-4 -3 -8 0 -8 7 0 7 -4 20 -8 30 -4 10 -3 17 5 17 6 0 14 -9 17 -20z m-30 -45
c0 -8 -9 -15 -21 -15 -20 0 -20 0 0 15 10 8 19 15 20 15 0 0 1 -7 1 -15z m30
-42 c-4 -3 -2 -12 4 -19 6 -8 7 -14 0 -18 -6 -4 -8 -13 -5 -20 9 -25 -17 -29
-40 -7 -19 20 -19 21 -2 15 13 -5 17 -4 13 3 -4 6 -1 10 6 9 6 0 12 4 12 9 0
6 -9 11 -20 11 -44 3 -48 7 -15 14 50 10 54 11 47 3z m-59 -207 c-7 -8 -17
-12 -22 -9 -4 3 -2 9 5 14 22 13 31 11 17 -5z m2 -86 c0 -5 -2 -10 -4 -10 -3
0 -8 5 -11 10 -3 6 -1 10 4 10 6 0 11 -4 11 -10z m-30 -4 c0 -3 -4 -8 -10 -11
-5 -3 -10 -1 -10 4 0 6 5 11 10 11 6 0 10 -2 10 -4z m-30 -31 c0 -8 -4 -15
-10 -15 -5 0 -10 7 -10 15 0 8 5 15 10 15 6 0 10 -7 10 -15z m80 -2 c-12 -8
-28 -12 -36 -9 -23 9 -10 21 25 22 30 1 31 1 11 -13z m23 -40 c-28 -5 -30 -23
-3 -23 11 0 20 -4 20 -10 0 -15 -54 -12 -76 5 -18 14 -18 14 4 8 12 -3 22 -1
22 5 0 6 -8 13 -17 15 -10 3 2 5 27 4 25 0 35 -2 23 -4z m-133 -63 c0 -5 -5
-10 -11 -10 -5 0 -7 5 -4 10 3 6 8 10 11 10 2 0 4 -4 4 -10z m107 -10 c2 -23
-12 -27 -20 -6 -3 8 -1 17 6 20 7 2 12 5 12 5 1 1 1 -8 2 -19z m-65 -22 c-7
-7 -12 -8 -12 -2 0 14 12 26 19 19 2 -3 -1 -11 -7 -17z m-39 -148 c-3 -12 -8
-19 -11 -16 -5 6 5 36 12 36 2 0 2 -9 -1 -20z m67 -112 c0 -10 -4 -18 -9 -18
-15 0 -26 23 -13 28 6 2 8 11 5 20 -4 15 -3 15 6 2 6 -8 11 -23 11 -32z m-75
-138 c3 -5 2 -10 -4 -10 -5 0 -13 5 -16 10 -3 6 -2 10 4 10 5 0 13 -4 16 -10z
m54 -56 c9 -9 -45 -3 -59 6 -11 8 -5 9 20 5 19 -3 36 -8 39 -11z m-32 -30 c-3
-3 -12 -4 -19 -1 -8 3 -5 6 6 6 11 1 17 -2 13 -5z m67 -28 c-4 -10 2 -12 22
-8 18 3 25 1 20 -6 -4 -6 -13 -9 -20 -6 -8 3 -17 1 -20 -4 -3 -5 3 -12 14 -15
11 -3 23 -1 26 4 8 14 24 11 24 -5 0 -19 -68 -17 -75 3 -5 13 -8 13 -14 2 -7
-10 -13 -11 -30 -1 -23 12 -24 32 -3 36 7 1 8 0 2 -3 -5 -2 -10 -9 -10 -14 0
-12 37 -12 45 1 3 6 0 10 -7 10 -9 0 -9 3 2 10 21 14 30 12 24 -4z m-12 -91
c3 -14 -1 -30 -8 -36 -10 -8 -11 -5 -7 10 3 13 1 21 -7 21 -10 0 -10 3 0 15
16 20 17 19 22 -10z m-32 -125 c0 -5 -5 -10 -11 -10 -5 0 -7 5 -4 10 3 6 8 10
11 10 2 0 4 -4 4 -10z m-3550 -150 c0 -5 -2 -10 -4 -10 -3 0 -8 5 -11 10 -3 6
-1 10 4 10 6 0 11 -4 11 -10z m3565 -50 c4 -6 10 -8 15 -5 4 3 10 -1 13 -8 3
-8 -3 -14 -14 -14 -10 -1 -19 4 -19 12 0 7 -6 16 -12 18 -10 4 -10 6 -1 6 6 1
15 -4 18 -9z m10 -60 c-3 -5 -12 -10 -18 -10 -7 0 -6 4 3 10 19 12 23 12 15 0z
m55 -5 c-7 -8 -17 -15 -22 -15 -11 0 14 29 26 30 5 0 3 -7 -4 -15z m40 -26 c0
-4 -10 -11 -22 -15 -13 -4 -26 -12 -30 -18 -5 -8 -11 -7 -20 2 -9 9 -9 12 4
12 9 0 18 6 21 13 5 13 47 18 47 6z m3 -241 c6 -4 9 -9 7 -12 -3 -2 -13 1 -23
9 -12 8 -15 19 -10 31 7 18 8 18 11 -1 3 -11 9 -23 15 -27z m-15 -49 c-3 -8
-7 -3 -11 10 -4 17 -3 21 5 13 5 -5 8 -16 6 -23z m32 -59 c0 -5 -5 -10 -11
-10 -5 0 -7 5 -4 10 3 6 8 10 11 10 2 0 4 -4 4 -10z m0 -60 c0 -5 -2 -10 -4
-10 -3 0 -8 5 -11 10 -3 6 -1 10 4 10 6 0 11 -4 11 -10z m80 -120 c0 -4 -6
-10 -14 -13 -10 -4 -12 0 -9 14 5 18 23 18 23 -1z m55 -110 c3 -5 -1 -10 -9
-10 -9 0 -16 5 -16 10 0 6 4 10 9 10 6 0 13 -4 16 -10z m26 -197 c-12 -20 -14
-14 -5 12 4 9 9 14 11 11 3 -2 0 -13 -6 -23z m83 -98 c3 -8 1 -15 -4 -15 -6 0
-10 7 -10 15 0 8 2 15 4 15 2 0 6 -7 10 -15z m266 -445 c0 -5 -2 -10 -4 -10
-3 0 -8 5 -11 10 -3 6 -1 10 4 10 6 0 11 -4 11 -10z"/>
<path d="M11650 9730 c0 -5 5 -10 10 -10 6 0 10 5 10 10 0 6 -4 10 -10 10 -5
0 -10 -4 -10 -10z"/>
<path d="M11916 11341 c-13 -5 -16 -10 -9 -14 7 -4 15 -2 18 4 4 5 13 8 21 5
8 -3 14 -1 14 4 0 12 -17 12 -44 1z"/>
<path d="M12013 11343 c-18 -6 -16 -23 1 -23 17 0 30 16 19 23 -5 2 -14 2 -20
0z"/>
<path d="M12070 11301 c-12 -24 -13 -34 -1 -27 9 6 22 46 15 46 -2 0 -8 -9
-14 -19z"/>
<path d="M11893 11295 c-10 -11 -9 -13 7 -12 20 1 26 12 13 20 -5 3 -14 -1
-20 -8z"/>
<path d="M11939 11288 c-9 -19 -9 -21 2 -10 19 18 29 15 30 -10 0 -13 3 -17 6
-10 2 6 9 10 13 7 5 -3 7 -12 4 -19 -3 -8 -1 -17 4 -20 6 -4 9 5 7 21 -1 15
-8 29 -14 31 -6 2 -11 10 -11 18 0 22 -28 16 -41 -8z"/>
<path d="M11940 11236 c0 -2 7 -6 15 -10 8 -3 15 -1 15 4 0 6 -7 10 -15 10 -8
0 -15 -2 -15 -4z"/>
<path d="M12033 11194 c0 -8 3 -12 5 -9 3 3 11 0 19 -7 7 -6 16 -9 19 -6 2 3
-6 12 -19 21 -20 13 -24 13 -24 1z"/>
<path d="M11970 11176 c0 -9 -4 -16 -9 -16 -5 0 -11 -7 -15 -15 -8 -23 7 -17
27 10 10 14 13 26 7 30 -5 3 -10 -1 -10 -9z"/>
<path d="M11995 11149 c-4 -6 -5 -12 -2 -15 2 -3 7 2 10 11 7 17 1 20 -8 4z"/>
<path d="M11926 11109 c3 -6 0 -15 -7 -20 -22 -13 13 -44 38 -34 10 5 24 7 31
6 6 -1 12 3 12 9 0 6 -6 8 -12 5 -7 -4 -2 3 12 14 32 27 7 28 -27 1 -34 -27
-45 -25 -37 5 4 16 2 25 -6 25 -6 0 -8 -5 -4 -11z"/>
<path d="M12120 11089 c0 -5 5 -7 10 -4 6 3 10 8 10 11 0 2 -4 4 -10 4 -5 0
-10 -5 -10 -11z"/>
<path d="M11870 11055 c-13 -16 -3 -20 24 -9 9 3 13 10 10 15 -8 13 -20 11
-34 -6z"/>
<path d="M12071 11054 c0 -11 3 -14 6 -6 3 7 2 16 -1 19 -3 4 -6 -2 -5 -13z"/>
<path d="M11949 11038 c0 -2 -2 -11 -4 -20 -5 -26 15 -34 22 -8 4 16 8 18 14
8 7 -10 9 -9 9 5 0 10 -8 17 -20 17 -11 0 -20 -1 -21 -2z"/>
<path d="M12090 10980 c0 -5 5 -10 11 -10 5 0 7 5 4 10 -3 6 -8 10 -11 10 -2
0 -4 -4 -4 -10z"/>
<path d="M10725 10950 c4 -6 11 -8 16 -5 14 9 11 15 -7 15 -8 0 -12 -5 -9 -10z"/>
<path d="M11981 10935 c0 -5 4 -17 9 -25 7 -12 12 -12 22 -2 9 9 9 12 -4 12
-9 0 -19 6 -21 13 -3 6 -6 8 -6 2z"/>
<path d="M10615 10890 c3 -5 10 -10 16 -10 5 0 9 5 9 10 0 6 -7 10 -16 10 -8
0 -12 -4 -9 -10z"/>
<path d="M12020 10856 c0 -2 7 -6 15 -10 8 -3 15 -1 15 4 0 6 -7 10 -15 10 -8
0 -15 -2 -15 -4z"/>
<path d="M11893 10803 c-7 -3 -13 -19 -13 -35 0 -35 8 -33 15 2 7 37 15 36 15
-3 0 -20 4 -37 10 -37 10 0 3 60 -9 71 -3 4 -12 4 -18 2z"/>
<path d="M12046 10785 c-3 -8 -1 -15 4 -15 6 0 10 7 10 15 0 8 -2 15 -4 15 -2
0 -6 -7 -10 -15z"/>
<path d="M11990 10780 c0 -5 5 -10 10 -10 6 0 10 5 10 10 0 6 -4 10 -10 10 -5
0 -10 -4 -10 -10z"/>
<path d="M11940 10769 c0 -5 5 -7 10 -4 6 3 10 8 10 11 0 2 -4 4 -10 4 -5 0
-10 -5 -10 -11z"/>
<path d="M11991 10728 c-17 -39 -11 -42 16 -8 17 21 19 29 10 33 -8 3 -19 -8
-26 -25z"/>
<path d="M11943 10733 c-7 -2 -13 -16 -13 -31 0 -20 3 -23 12 -14 10 10 23 54
15 51 -1 0 -8 -3 -14 -6z"/>
<path d="M12027 10709 c7 -7 15 -10 18 -7 3 3 -2 9 -12 12 -14 6 -15 5 -6 -5z"/>
<path d="M12022 10674 c10 -10 20 -16 22 -13 3 3 -5 11 -17 18 -21 13 -21 12
-5 -5z"/>
<path d="M11960 10645 c-10 -12 -10 -15 4 -15 9 0 16 7 16 15 0 8 -2 15 -4 15
-2 0 -9 -7 -16 -15z"/>
<path d="M12003 10644 c-7 -3 -9 -12 -6 -20 3 -8 -1 -14 -11 -14 -9 0 -16 -4
-16 -10 0 -14 16 -12 27 3 9 11 25 48 20 46 -1 0 -7 -3 -14 -5z"/>
<path d="M11939 10553 c-13 -17 -13 -17 6 -3 11 8 22 16 24 17 2 2 0 3 -6 3
-6 0 -17 -8 -24 -17z"/>
<path d="M11995 10560 c3 -5 8 -10 11 -10 2 0 4 5 4 10 0 6 -5 10 -11 10 -5 0
-7 -4 -4 -10z"/>
<path d="M11980 10516 c0 -9 5 -16 10 -16 6 0 10 4 10 9 0 6 -4 13 -10 16 -5
3 -10 -1 -10 -9z"/>
<path d="M11953 10505 c-3 -9 -3 -18 -1 -21 3 -3 8 4 11 16 6 23 -1 27 -10 5z"/>
<path d="M11924 10488 c3 -30 -11 -38 -20 -13 -4 8 -10 12 -15 9 -5 -3 -2 -12
6 -21 9 -8 13 -23 10 -33 -3 -10 0 -20 9 -23 11 -4 13 -1 9 10 -4 10 1 21 13
30 13 9 15 16 8 21 -7 4 -14 16 -17 27 -4 12 -5 10 -3 -7z"/>
<path d="M11967 10442 c-3 -4 1 -13 9 -19 7 -7 15 -9 17 -5 3 4 -1 13 -9 19
-7 7 -15 9 -17 5z"/>
<path d="M11985 10310 c3 -5 8 -10 11 -10 2 0 4 5 4 10 0 6 -5 10 -11 10 -5 0
-7 -4 -4 -10z"/>
<path d="M11828 10294 c6 -3 9 -11 6 -16 -4 -7 -2 -8 4 -4 8 5 12 0 12 -13 0
-12 5 -21 11 -21 6 0 9 12 7 27 -2 19 -9 27 -28 29 -14 1 -19 0 -12 -2z"/>
<path d="M11890 10291 c0 -6 5 -13 10 -16 6 -3 10 1 10 9 0 9 -4 16 -10 16 -5
0 -10 -4 -10 -9z"/>
<path d="M11906 10235 c-4 -10 -2 -14 5 -9 8 4 9 -1 4 -17 -7 -23 -6 -23 11
-6 17 15 17 18 3 33 -15 14 -17 14 -23 -1z"/>
<path d="M11820 10135 c-7 -8 -9 -15 -4 -15 4 0 3 -5 -4 -12 -14 -14 -16 -32
-3 -24 9 6 33 66 27 66 -2 0 -9 -7 -16 -15z"/>
<path d="M11859 10103 c-13 -16 -12 -17 4 -4 9 7 17 15 17 17 0 8 -8 3 -21
-13z"/>
<path d="M11820 10075 c0 -5 4 -16 8 -23 7 -9 13 -8 27 8 10 11 13 20 7 20 -6
0 -14 -5 -18 -11 -4 -8 -9 -7 -15 2 -5 8 -9 10 -9 4z"/>
<path d="M11790 10049 c0 -5 5 -7 10 -4 6 3 10 8 10 11 0 2 -4 4 -10 4 -5 0
-10 -5 -10 -11z"/>
<path d="M11810 10029 c0 -6 -9 -8 -20 -4 -11 4 -20 2 -20 -4 0 -6 5 -11 10
-11 6 0 10 -4 10 -10 0 -5 -5 -9 -11 -7 -6 1 -14 -4 -16 -10 -6 -16 17 -16 37
0 14 11 26 57 15 57 -3 0 -5 -5 -5 -11z"/>
<path d="M11845 10031 c-3 -5 0 -13 6 -17 7 -4 9 -3 5 4 -3 5 0 13 6 15 9 4
10 6 1 6 -6 1 -14 -3 -18 -8z"/>
<path d="M11885 10020 c3 -5 8 -10 11 -10 2 0 4 5 4 10 0 6 -5 10 -11 10 -5 0
-7 -4 -4 -10z"/>
<path d="M11946 9908 c3 -5 10 -6 15 -3 13 9 11 12 -6 12 -8 0 -12 -4 -9 -9z"/>
<path d="M11815 9870 c-3 -6 1 -7 9 -4 18 7 21 14 7 14 -6 0 -13 -4 -16 -10z"/>
<path d="M11740 9839 c0 -5 5 -7 10 -4 6 3 10 8 10 11 0 2 -4 4 -10 4 -5 0
-10 -5 -10 -11z"/>
<path d="M11760 9800 c0 -5 4 -10 9 -10 6 0 13 5 16 10 3 6 -1 10 -9 10 -9 0
-16 -4 -16 -10z"/>
<path d="M11741 9719 c-1 -9 8 -27 18 -40 16 -19 22 -22 32 -11 11 10 9 12 -8
12 -14 0 -25 9 -31 28 -6 15 -11 20 -11 11z"/>
<path d="M11776 9715 c4 -8 10 -15 15 -15 4 0 6 7 3 15 -4 8 -10 15 -15 15 -4
0 -6 -7 -3 -15z"/>
<path d="M11696 9623 c-6 -14 -5 -15 5 -6 7 7 10 15 7 18 -3 3 -9 -2 -12 -12z"/>
<path d="M11775 9610 c-3 -5 -2 -10 4 -10 5 0 13 5 16 10 3 6 2 10 -4 10 -5 0
-13 -4 -16 -10z"/>
<path d="M11746 9587 c3 -10 9 -15 12 -12 3 3 0 11 -7 18 -10 9 -11 8 -5 -6z"/>
<path d="M11715 9560 c-4 -6 3 -10 14 -10 25 0 27 6 6 13 -8 4 -17 2 -20 -3z"/>
<path d="M11757 9535 c-4 -8 -3 -16 1 -19 4 -3 9 4 9 15 2 23 -3 25 -10 4z"/>
<path d="M11696 9515 c4 -8 11 -15 16 -15 6 0 5 6 -2 15 -7 8 -14 15 -16 15
-2 0 -1 -7 2 -15z"/>
<path d="M11721 9416 c11 -15 11 -20 2 -23 -15 -5 -18 -23 -4 -23 18 0 21 34
4 49 -16 15 -16 15 -2 -3z"/>
<path d="M11678 9333 c-10 -19 -2 -38 17 -42 16 -3 17 -1 7 11 -6 8 -9 17 -6
20 3 3 1 9 -5 12 -5 4 -11 3 -13 -1z"/>
<path d="M11674 9265 c8 -8 18 -15 22 -15 3 0 1 7 -6 15 -7 8 -17 15 -22 15
-5 0 -3 -7 6 -15z"/>
<path d="M11673 9063 c0 -18 5 -29 9 -25 5 5 4 19 -1 33 -10 23 -10 22 -8 -8z"/>
<path d="M11635 9005 c0 -26 5 -47 13 -50 7 -3 12 4 12 18 0 18 2 19 10 7 7
-10 10 -11 10 -2 0 7 -7 15 -15 18 -8 4 -13 10 -10 14 6 10 -4 40 -14 40 -3 0
-6 -20 -6 -45z"/>
<path d="M11630 8915 c-24 -29 17 -49 45 -22 11 11 10 15 -6 25 -24 15 -24 15
-39 -3z"/>
<path d="M11600 8880 c0 -5 5 -10 11 -10 5 0 7 5 4 10 -3 6 -8 10 -11 10 -2 0
-4 -4 -4 -10z"/>
<path d="M11638 8713 c9 -4 10 -9 2 -18 -8 -9 -7 -14 4 -18 10 -4 13 -1 9 9
-4 10 0 13 13 8 18 -5 18 -5 0 10 -11 9 -25 16 -30 15 -6 0 -5 -3 2 -6z"/>
<path d="M11680 8654 c0 -10 28 -33 33 -27 3 3 0 12 -8 19 -14 15 -25 18 -25
8z"/>
<path d="M11640 8540 c0 -6 7 -10 15 -10 8 0 15 2 15 4 0 2 -7 6 -15 10 -8 3
-15 1 -15 -4z"/>
<path d="M11660 8476 c0 -2 7 -7 16 -10 8 -3 12 -2 9 4 -6 10 -25 14 -25 6z"/>
<path d="M11682 8368 c2 -6 10 -14 16 -16 7 -2 10 2 6 12 -7 18 -28 22 -22 4z"/>
<path d="M11685 8242 c-2 -2 3 -15 12 -29 12 -19 13 -27 4 -32 -6 -4 -10 -14
-7 -22 2 -8 7 -27 10 -42 11 -50 27 -18 20 41 -3 31 -8 60 -10 64 -3 5 0 8 5
8 6 0 11 4 11 8 0 8 -38 11 -45 4z"/>
<path d="M11760 8062 c0 -6 -7 -9 -15 -6 -16 6 -21 -11 -6 -20 11 -7 36 22 27
31 -3 3 -6 1 -6 -5z"/>
<path d="M11715 8020 c-3 -5 -1 -10 4 -10 6 0 11 5 11 10 0 6 -2 10 -4 10 -3
0 -8 -4 -11 -10z"/>
<path d="M11893 7614 c1 -21 27 -23 27 -2 0 5 -4 7 -9 4 -5 -4 -11 0 -14 6 -3
7 -4 3 -4 -8z"/>
<path d="M11980 7420 c0 -5 5 -10 10 -10 6 0 10 5 10 10 0 6 -4 10 -10 10 -5
0 -10 -4 -10 -10z"/>
<path d="M12130 7100 c0 -5 5 -10 10 -10 6 0 10 5 10 10 0 6 -4 10 -10 10 -5
0 -10 -4 -10 -10z"/>
</g>
</svg>
